<?xml version="1.0" standalone="no"?>
<!DOCTYPE svg PUBLIC "-//W3C//DTD SVG 20010904//EN"
 "http://www.w3.org/TR/2001/REC-SVG-20010904/DTD/svg10.dtd">
<svg version="1.0" xmlns="http://www.w3.org/2000/svg"
 width="1280.000000pt" height="1280.000000pt" viewBox="0 0 1280.000000 1280.000000"
 preserveAspectRatio="xMidYMid meet">
<metadata>
Created by potrace 1.15, written by Peter Selinger 2001-2017
</metadata>
<g transform="translate(0.000000,1280.000000) scale(0.100000,-0.100000)"
fill="#000000" stroke="none">
<path d="M3245 10425 c-377 -69 -690 -304 -851 -640 -213 -445 -124 -967 225
-1316 554 -554 1486 -409 1843 288 230 447 145 987 -211 1344 -172 171 -374
277 -621 323 -98 19 -286 19 -385 1z"/>
<path d="M9185 10425 c-340 -62 -623 -256 -803 -550 -49 -79 -101 -211 -130
-325 -23 -92 -26 -125 -26 -265 0 -140 3 -173 26 -266 107 -427 422 -746 845
-855 131 -34 327 -43 463 -20 434 72 790 381 924 801 64 204 60 511 -11 710
-144 403 -464 680 -882 765 -115 23 -295 26 -406 5z"/>
<path d="M2218 8190 c-41 -32 -37 -19 -114 -435 -145 -792 -278 -1685 -439
-2955 -78 -618 -102 -804 -119 -930 -9 -63 -10 -105 -4 -128 14 -51 83 -113
161 -146 37 -16 67 -33 67 -38 0 -5 -6 -19 -14 -31 -21 -32 -40 -205 -33 -300
8 -119 21 -153 80 -211 59 -58 114 -80 180 -71 56 7 554 40 997 64 470 27 818
41 1080 44 l214 2 8 -40 c23 -132 70 -479 87 -650 42 -411 58 -762 67 -1445 3
-262 10 -489 16 -507 5 -18 23 -44 39 -58 l31 -25 224 0 224 0 38 34 37 34 3
429 c7 894 -37 1674 -128 2293 -45 312 -74 459 -94 478 -15 16 -82 17 -847 20
-782 2 -830 4 -824 20 4 9 9 172 11 362 3 462 26 849 84 1470 44 465 108 1051
116 1059 3 3 10 -2 15 -11 28 -50 262 -351 358 -460 114 -130 269 -279 401
-387 41 -34 92 -77 112 -96 69 -63 44 -60 523 -59 468 0 757 14 805 39 43 22
52 62 35 152 -20 103 -46 154 -93 180 -47 27 -70 30 -282 43 -244 15 -389 28
-575 51 -187 24 -175 17 -323 176 -118 126 -231 261 -398 474 -66 85 -201 257
-300 382 -98 125 -185 236 -191 245 -10 14 -9 58 7 217 11 110 20 225 20 255
-1 79 -28 133 -87 170 -192 123 -482 210 -973 291 -145 24 -171 24 -202 -1z"/>
<path d="M10440 8199 c-447 -72 -721 -144 -913 -240 -125 -62 -163 -92 -183
-146 -18 -45 -18 -54 4 -295 l23 -248 -79 -98 c-43 -53 -181 -229 -306 -391
-126 -161 -278 -352 -339 -425 -115 -135 -300 -332 -328 -346 -38 -21 -471
-65 -829 -85 -138 -8 -179 -17 -219 -51 -39 -32 -71 -120 -78 -210 -5 -69 -5
-71 25 -96 22 -19 46 -27 94 -31 160 -16 659 -29 905 -24 244 5 275 7 297 24
80 61 287 243 380 333 141 136 269 285 424 493 69 92 127 165 130 163 5 -6 15
-87 57 -481 102 -959 148 -1656 144 -2155 -1 -118 2 -227 6 -242 l7 -28 -798
0 c-440 0 -816 -3 -838 -7 -52 -8 -57 -24 -100 -279 -114 -674 -166 -1449
-166 -2492 0 -437 1 -448 55 -490 27 -21 37 -22 250 -22 210 0 224 1 249 21
59 46 57 30 67 678 4 328 13 679 19 781 25 448 81 950 136 1224 l6 29 227 -7
c580 -17 1609 -72 2003 -107 108 -9 121 -8 160 9 53 24 111 84 134 137 35 82
27 372 -12 432 -8 12 -14 25 -14 28 0 2 33 21 73 41 84 42 121 74 149 128 19
38 19 38 -1 190 -11 83 -25 187 -30 231 -98 803 -225 1749 -321 2390 -105 706
-255 1557 -285 1615 -30 59 -66 68 -185 49z"/>
<path d="M6304 7585 c-57 -72 -78 -124 -82 -201 -5 -81 18 -146 75 -221 l33
-43 0 -123 1 -122 36 40 c110 123 116 273 14 403 l-36 47 -5 130 -5 129 -31
-39z"/>
<path d="M5921 7129 c-50 -75 -65 -126 -58 -206 5 -66 29 -123 78 -185 28 -36
29 -39 29 -157 0 -67 3 -121 8 -121 11 1 66 78 93 130 34 66 32 167 -4 237
-15 29 -40 68 -57 86 -30 34 -30 35 -30 156 0 67 -4 121 -9 121 -5 0 -28 -27
-50 -61z"/>
<path d="M6641 7151 c-82 -104 -100 -227 -47 -331 16 -30 42 -71 58 -91 29
-36 29 -38 27 -148 -1 -62 1 -114 4 -117 8 -9 66 72 93 131 46 100 26 211 -57
316 -28 36 -29 40 -29 158 0 67 -4 121 -9 121 -5 0 -23 -18 -40 -39z"/>
<path d="M820 7055 c-11 -29 -15 -6681 -4 -6709 5 -13 26 -16 125 -16 169 0
170 1 237 161 166 400 263 1024 285 1834 l2 80 1020 0 1020 0 7 -270 c18 -705
58 -1163 140 -1604 19 -106 24 -118 59 -155 l38 -41 120 -3 120 -4 15 30 c18
35 29 124 51 417 29 394 36 630 42 1337 l6 707 -36 36 -35 35 -1266 1 c-696 1
-1270 3 -1276 4 -5 1 -14 3 -19 4 -5 0 -10 76 -10 169 -5 632 -92 1740 -217
2762 -87 712 -147 1113 -176 1187 l-23 58 -108 3 -107 3 -10 -26z"/>
<path d="M11768 7063 c-30 -34 -50 -119 -84 -358 -187 -1309 -307 -2591 -330
-3525 -5 -182 -11 -277 -18 -282 -6 -4 -584 -8 -1283 -8 l-1273 0 -32 -29 -33
-29 1 -644 c1 -662 11 -974 44 -1443 22 -300 26 -336 46 -382 l13 -33 112 0
c131 0 165 14 198 83 38 79 114 612 140 977 11 159 30 653 34 875 l2 140 1020
0 1020 0 2 -60 c26 -664 74 -1099 162 -1461 59 -240 152 -486 200 -529 21 -18
37 -20 154 -20 l131 0 8 47 c5 25 7 1533 6 3350 -3 2668 -5 3307 -16 3326 -12
20 -20 22 -111 22 -81 0 -101 -3 -113 -17z"/>
<path d="M7457 6777 c-18 -17 -120 -127 -229 -242 -272 -291 -243 -267 -309
-255 -185 36 -595 51 -829 29 -227 -20 -537 -82 -598 -119 -39 -24 -40 -42
-11 -136 32 -104 92 -205 176 -295 96 -101 170 -154 314 -224 l114 -55 310 0
310 0 95 43 c129 58 209 109 291 185 119 110 210 261 240 396 12 56 12 60 -9
76 -12 10 -59 27 -104 39 -46 12 -94 25 -107 30 -22 6 -4 26 218 241 159 155
241 242 241 255 0 33 -28 65 -57 65 -15 0 -37 -13 -56 -33z"/>
<path d="M6411 5412 l-2984 -2 6 -90 c8 -107 24 -144 69 -159 80 -25 513 -106
808 -151 330 -50 781 -96 1195 -122 273 -17 1520 -17 1790 0 702 45 1256 117
1892 246 176 36 196 45 213 105 12 42 13 168 3 173 -5 2 -1351 2 -2992 0z"/>
<path d="M6016 4737 c-33 -33 -33 -44 4 -308 136 -982 166 -1943 90 -2890 -22
-279 -57 -585 -95 -831 -30 -203 -31 -228 -4 -262 l20 -26 383 0 c414 0 416 0
430 55 4 15 -5 90 -18 168 -111 630 -158 1178 -158 1857 0 683 45 1244 158
2001 15 97 24 189 20 203 -13 51 -38 57 -182 45 -124 -11 -519 -6 -591 7 -25
5 -37 1 -57 -19z"/>
</g>
</svg>
