<svg id="Layer_1" data-name="Layer 1" xmlns="http://www.w3.org/2000/svg" viewBox="0 0 96.17 122.88"><defs><style>.cls-1{fill:#212121;}.cls-1,.cls-2,.cls-3{fill-rule:evenodd;}.cls-2{fill:#fff;}.cls-4{fill:#e72227;}</style></defs><title>takeaway</title><path class="cls-1" d="M71.06.09A4.14,4.14,0,0,1,71.91,0c3.93,0,7.93,2,9,6l.09.4c1,5.08,2.75,10.92,4.58,17.19,2.87,9.82,6,20.69,7.83,32.76,2,13.1,3.27,23.41,2.55,36.33a77,77,0,0,1-2.25,14.64,30.66,30.66,0,0,0-.57,3.37c-.76,5.75-1.54,11.74-8.59,12h-.13v0l-70.88.17-.41,0a11.4,11.4,0,0,1-5.26-1.08,7.39,7.39,0,0,1-3.81-5.43l0-.12c-2.13-11-3.17-17.3-3.6-23.7C-.41,79.71-.07,74.69,1.76,61.9c2-14.15,5.56-27.62,8.92-40.33,1.49-5.64,2.94-11.13,4.09-16a4.28,4.28,0,0,1,.29-.83A7.66,7.66,0,0,1,22.33,0a5.56,5.56,0,0,1,.82.08l6.2,1a3.71,3.71,0,0,1,1.1.34,2.16,2.16,0,0,1,1.13,0C35,2.14,36.63,4.91,37.24,11c.48,4.69.39,11.76.13,22.08l21.87.08a152.54,152.54,0,0,1-.88-18.63C58.87,3,62.55,1.64,71.06.09Z"/><path class="cls-2" d="M30.52,19.43c-.66,4.29-1.28,8.92-1.86,13.6h4.06c.27-10.15.35-17.09-.11-21.6-.09-.89-.2-1.64-.31-2.3-.67,3.42-1.25,6.85-1.78,10.29ZM67.35,5.2l4.5-.83c1.63,0,4.28.63,4.86,2.79C79.54,21,86.22,37.57,89.11,57,91,69.38,92.59,80.86,91.74,92.82a76.51,76.51,0,0,1-2.25,13.5c-1.12,4.48-.54,11.91-5.06,12l-70.89.17c-3.26-.06-4.62-.47-5.22-3.13C4.06,93.48,2.9,84.65,6.06,62.51,8.94,42.41,15,23.64,19,6.55a3.4,3.4,0,0,1,3.29-2.2l6.34,1.06c-1.8,8.44-3.17,18-4.33,27.39-.08,2.85.9,4.65,3.78,4.59l39.55.13c2.94-.37,4-2.15,3.49-5.13-.81-10.6-2-20.37-3.76-27.19Zm-3.5,27.94,3,0h0c0-.15,0-.3,0-.44h0c-.4-5.37-.88-10.4-1.47-14.76-.45-3.4-1-6.53-1.58-9.3a28.94,28.94,0,0,0-.74,6,151,151,0,0,0,.88,18.44Z"/><path class="cls-3" d="M67,33.47c0,.11-.08.18,0,.07s0,0,0-.07Z"/><path class="cls-4" d="M32.2,61l-3.91-.1L28,73.5l-5.4-.13.31-12.56L19,60.71l.11-4.32,13.23.32L32.2,61Zm4.26,12.67-5.7-.14,4.79-16.78L43.9,57l4,17-5.7-.14-.56-2.69-4.45-.11-.69,2.66Zm3-11.63-1.23,4.7,2.49.06-1-4.75Zm15,4.72-.18,7.35L48.88,74l.42-16.88,5.4.13-.17,6.89h.11a4.09,4.09,0,0,1,.3-1.29l2.79-5.52,5.83.14L59.3,65.67l4,8.7-5.83-.15L54.81,68.1a4.19,4.19,0,0,1-.24-1.3Zm21.39,1.5-5.4-.13,0,2,6.62.16-.11,4.32-12-.29.42-16.88,11.88.29-.78,4.3L70.61,62l0,2.27,5.4.13-.1,3.92Z"/><path class="cls-4" d="M19.53,97l-5.7-.14L18.62,80.1l8.35.2,4,17-5.7-.14-.56-2.69-4.46-.11L19.53,97Zm3-11.63-1.23,4.7,2.49.06-1-4.75ZM47.14,80.8l5.65.14L49.73,97.75l-7-.17-1.09-6.24h-.33L39.9,97.51l-7.06-.17-2.23-17,5.65.14,1,9.46h.16l2.18-9.38,4.13.11,1.68,9.47h.17l1.52-9.39Zm10.2,17.14-5.69-.14L56.44,81l8.34.2,4,17L63,98.08l-.55-2.69L58,95.28l-.69,2.66Zm3-11.63L59.11,91l2.49.06-1-4.75Zm12.85-4.87,1.34,6h.19l1.66-5.9,6,.14L77.18,93.84l-.12,4.59-5.4-.14.11-4.59L67.21,81.29l6,.15Z"/></svg>